<svg width="389" height="645" viewBox="0 0 389 645" fill="none" xmlns="http://www.w3.org/2000/svg">
<circle cx="2.5" cy="2.5" r="2.5" fill="black" fill-opacity="0.21"/>
<circle cx="66.5" cy="2.5" r="2.5" fill="black" fill-opacity="0.21"/>
<circle cx="130.5" cy="2.5" r="2.5" fill="black" fill-opacity="0.21"/>
<circle cx="194.5" cy="2.5" r="2.5" fill="black" fill-opacity="0.21"/>
<circle cx="258.5" cy="2.5" r="2.5" fill="black" fill-opacity="0.21"/>
<circle cx="322.5" cy="2.5" r="2.5" fill="black" fill-opacity="0.21"/>
<circle cx="386.5" cy="2.5" r="2.5" fill="black" fill-opacity="0.21"/>
<circle cx="2.5" cy="66.5" r="2.5" fill="black" fill-opacity="0.21"/>
<circle cx="66.5" cy="66.5" r="2.5" fill="black" fill-opacity="0.21"/>
<circle cx="130.5" cy="66.5" r="2.5" fill="black" fill-opacity="0.21"/>
<circle cx="194.5" cy="66.5" r="2.5" fill="black" fill-opacity="0.21"/>
<circle cx="258.5" cy="66.5" r="2.5" fill="black" fill-opacity="0.21"/>
<circle cx="322.5" cy="66.5" r="2.5" fill="black" fill-opacity="0.21"/>
<circle cx="386.5" cy="66.5" r="2.5" fill="black" fill-opacity="0.21"/>
<circle cx="2.5" cy="130.5" r="2.5" fill="black" fill-opacity="0.21"/>
<circle cx="66.5" cy="130.5" r="2.5" fill="black" fill-opacity="0.21"/>
<circle cx="130.5" cy="130.5" r="2.5" fill="black" fill-opacity="0.21"/>
<circle cx="194.5" cy="130.5" r="2.5" fill="black" fill-opacity="0.21"/>
<circle cx="258.5" cy="130.5" r="2.5" fill="black" fill-opacity="0.21"/>
<circle cx="322.5" cy="130.5" r="2.5" fill="black" fill-opacity="0.21"/>
<circle cx="386.5" cy="130.5" r="2.5" fill="black" fill-opacity="0.21"/>
<circle cx="2.5" cy="194.5" r="2.5" fill="black" fill-opacity="0.21"/>
<circle cx="66.5" cy="194.5" r="2.5" fill="black" fill-opacity="0.21"/>
<circle cx="130.5" cy="194.5" r="2.5" fill="black" fill-opacity="0.21"/>
<circle cx="194.5" cy="194.5" r="2.5" fill="black" fill-opacity="0.21"/>
<circle cx="258.5" cy="194.5" r="2.5" fill="black" fill-opacity="0.21"/>
<circle cx="322.5" cy="194.5" r="2.5" fill="black" fill-opacity="0.21"/>
<circle cx="386.5" cy="194.5" r="2.5" fill="black" fill-opacity="0.21"/>
<circle cx="2.5" cy="258.5" r="2.5" fill="black" fill-opacity="0.21"/>
<circle cx="66.5" cy="258.5" r="2.5" fill="black" fill-opacity="0.21"/>
<circle cx="130.5" cy="258.5" r="2.5" fill="black" fill-opacity="0.21"/>
<circle cx="194.5" cy="258.5" r="2.5" fill="black" fill-opacity="0.21"/>
<circle cx="258.5" cy="258.5" r="2.5" fill="black" fill-opacity="0.21"/>
<circle cx="322.5" cy="258.5" r="2.5" fill="black" fill-opacity="0.21"/>
<circle cx="386.5" cy="258.5" r="2.5" fill="black" fill-opacity="0.21"/>
<circle cx="2.5" cy="322.5" r="2.5" fill="black" fill-opacity="0.21"/>
<circle cx="66.5" cy="322.5" r="2.5" fill="black" fill-opacity="0.21"/>
<circle cx="130.5" cy="322.5" r="2.5" fill="black" fill-opacity="0.21"/>
<circle cx="194.5" cy="322.5" r="2.5" fill="black" fill-opacity="0.21"/>
<circle cx="258.5" cy="322.5" r="2.5" fill="black" fill-opacity="0.21"/>
<circle cx="322.5" cy="322.5" r="2.5" fill="black" fill-opacity="0.21"/>
<circle cx="386.5" cy="322.5" r="2.5" fill="black" fill-opacity="0.21"/>
<circle cx="2.5" cy="386.5" r="2.5" fill="black" fill-opacity="0.21"/>
<circle cx="66.5" cy="386.5" r="2.5" fill="black" fill-opacity="0.21"/>
<circle cx="130.5" cy="386.5" r="2.5" fill="black" fill-opacity="0.21"/>
<circle cx="194.5" cy="386.5" r="2.5" fill="black" fill-opacity="0.21"/>
<circle cx="258.5" cy="386.5" r="2.5" fill="black" fill-opacity="0.21"/>
<circle cx="322.5" cy="386.5" r="2.5" fill="black" fill-opacity="0.21"/>
<circle cx="386.5" cy="386.5" r="2.5" fill="black" fill-opacity="0.21"/>
<circle cx="2.5" cy="450.5" r="2.5" fill="black" fill-opacity="0.21"/>
<circle cx="66.5" cy="450.5" r="2.5" fill="black" fill-opacity="0.21"/>
<circle cx="130.5" cy="450.5" r="2.5" fill="black" fill-opacity="0.21"/>
<circle cx="194.5" cy="450.5" r="2.5" fill="black" fill-opacity="0.21"/>
<circle cx="258.5" cy="450.5" r="2.5" fill="black" fill-opacity="0.21"/>
<circle cx="322.5" cy="450.5" r="2.5" fill="black" fill-opacity="0.21"/>
<circle cx="386.5" cy="450.5" r="2.5" fill="black" fill-opacity="0.21"/>
<circle cx="2.5" cy="514.5" r="2.5" fill="black" fill-opacity="0.21"/>
<circle cx="66.5" cy="514.5" r="2.5" fill="black" fill-opacity="0.21"/>
<circle cx="130.5" cy="514.5" r="2.5" fill="black" fill-opacity="0.21"/>
<circle cx="194.5" cy="514.5" r="2.5" fill="black" fill-opacity="0.21"/>
<circle cx="258.5" cy="514.5" r="2.5" fill="black" fill-opacity="0.21"/>
<circle cx="322.5" cy="514.5" r="2.5" fill="black" fill-opacity="0.21"/>
<circle cx="386.5" cy="514.5" r="2.5" fill="black" fill-opacity="0.21"/>
<circle cx="2.5" cy="578.5" r="2.5" fill="black" fill-opacity="0.21"/>
<circle cx="66.5" cy="578.5" r="2.5" fill="black" fill-opacity="0.21"/>
<circle cx="130.5" cy="578.5" r="2.5" fill="black" fill-opacity="0.21"/>
<circle cx="194.5" cy="578.5" r="2.5" fill="black" fill-opacity="0.21"/>
<circle cx="258.5" cy="578.5" r="2.5" fill="black" fill-opacity="0.21"/>
<circle cx="322.5" cy="578.5" r="2.5" fill="black" fill-opacity="0.21"/>
<circle cx="386.5" cy="578.5" r="2.5" fill="black" fill-opacity="0.21"/>
<circle cx="2.5" cy="642.5" r="2.5" fill="black" fill-opacity="0.21"/>
<circle cx="66.5" cy="642.5" r="2.5" fill="black" fill-opacity="0.21"/>
<circle cx="130.5" cy="642.5" r="2.5" fill="black" fill-opacity="0.21"/>
<circle cx="194.5" cy="642.5" r="2.5" fill="black" fill-opacity="0.21"/>
<circle cx="258.5" cy="642.5" r="2.5" fill="black" fill-opacity="0.21"/>
<circle cx="322.5" cy="642.5" r="2.5" fill="black" fill-opacity="0.21"/>
<circle cx="386.5" cy="642.5" r="2.5" fill="black" fill-opacity="0.21"/>
</svg>
